<svg xmlns="http://www.w3.org/2000/svg" width="6328" height="799" fill="none"><g filter="url(#a)"><mask id="b" width="2919" height="780" x="357.848" y="0" fill="#000" maskUnits="userSpaceOnUse"><path fill="#fff" d="M357.848 0h2919v780h-2919z"/><path d="M730.27 198.477 556.93 760H372.848l261.23-710.938h116.699zM873.824 760 699.996 198.477 677.535 49.062h118.164L1058.39 760zm-6.836-265.137v132.325H502.242V494.863z"/><path d="M1181.01 344.473V760h-164.55V231.68h154.3zm-19.53 133.3-38.57.977q0-60.548 14.64-107.91c9.77-31.901 23.6-58.919 41.51-81.055q26.85-33.203 63.96-50.293c25.07-11.719 52.9-17.578 83.5-17.578 24.41 0 46.71 3.581 66.89 10.742q30.765 10.743 52.74 34.668c14.97 15.951 26.37 37.11 34.18 63.477q12.21 39.062 12.21 96.679V760h-165.53V426.992q0-31.738-8.79-48.34c-5.86-11.393-14.32-19.205-25.39-23.437q-16.605-6.348-40.53-6.348c-16.93 0-31.25 3.255-42.97 9.766q-17.58 9.765-28.32 27.344c-6.83 11.393-11.88 24.902-15.13 40.527-2.93 15.625-4.4 32.715-4.4 51.269m666.07 161.133V10h165.53v750h-148.44zm-324.21-136.718v-10.254c0-40.039 4.39-76.498 13.18-109.375q13.185-49.806 39.06-85.45c17.25-24.088 38.74-42.643 64.46-55.664q38.565-19.531 88.86-19.531c29.95 0 56.15 6.999 78.62 20.996 22.46 13.672 41.66 32.878 57.61 57.617 15.95 24.74 28.97 53.711 39.07 86.914 10.09 32.878 17.74 68.36 22.94 106.446v12.207c-5.2 35.807-12.85 69.661-22.94 101.562-10.1 31.576-23.12 59.571-39.07 83.985s-35.32 43.619-58.1 57.617c-22.46 13.672-48.83 20.508-79.1 20.508-33.53 0-63.16-6.674-88.87-20.02-25.39-13.346-46.71-32.064-63.97-56.152-16.92-24.089-29.78-52.409-38.57-84.961s-13.18-68.034-13.18-106.445m164.55-10.254v10.254q0 29.784 3.9 55.175c2.61 16.927 7 31.901 13.19 44.922 6.51 12.695 14.97 22.624 25.39 29.785 10.74 7.162 23.92 10.742 39.55 10.742 21.16 0 38.57-5.045 52.24-15.136 14-10.091 24.26-24.414 30.77-42.969 6.83-18.555 9.76-40.365 8.78-65.43v-38.574c.66-21.484-.81-40.364-4.39-56.641-3.58-16.601-9.28-30.436-17.09-41.503-7.49-11.068-17.09-19.369-28.81-24.903q-17.085-8.789-40.53-8.789c-15.29 0-28.32 3.581-39.06 10.742-10.41 7.162-18.88 17.253-25.39 30.274q-9.765 19.043-14.16 45.41c-2.93 17.253-4.39 36.133-4.39 56.641m614.31 277.832q-64.455 0-115.23-20.02c-33.86-13.672-62.5-32.389-85.94-56.152q-34.665-35.644-53.22-82.032c-12.05-30.924-18.07-63.639-18.07-98.144v-18.555c0-38.737 5.37-74.544 16.12-107.422q16.11-49.804 47.85-86.914t79.59-57.617c31.9-13.997 69.01-20.996 111.32-20.996q56.16 0 100.59 18.066c29.62 12.045 54.69 29.297 75.2 51.758 20.83 22.461 36.62 49.642 47.36 81.543 11.07 31.901 16.6 67.709 16.6 107.422v66.895h-431.64V444.57h271v-12.695c.32-17.578-2.77-32.552-9.28-44.922-6.19-12.37-15.3-21.81-27.34-28.32q-18.075-9.766-43.95-9.766-26.85 0-44.43 11.719c-11.4 7.812-20.35 18.555-26.86 32.226-6.18 13.347-10.58 28.809-13.18 46.387-2.61 17.578-3.91 36.133-3.91 55.664v18.555c0 19.531 2.61 37.272 7.81 53.223 5.54 15.95 13.35 29.622 23.44 41.015q15.63 16.602 37.11 25.879c14.65 6.185 31.25 9.277 49.81 9.277 22.46 0 44.59-4.231 66.4-12.695 21.81-8.463 40.53-22.461 56.15-41.992l74.71 88.867q-16.11 22.95-45.9 44.434c-19.53 14.323-42.97 26.041-70.31 35.156q-41.01 13.184-91.8 13.184m395.08-407.227V760h-164.55V231.68h153.81zm156.25-134.766-2.93 152.832q-9.765-.976-26.37-2.441c-11.06-.976-20.34-1.465-27.83-1.465-19.2 0-35.81 2.279-49.8 6.836-13.67 4.232-25.07 10.742-34.18 19.531q-13.185 12.696-19.53 32.227-5.865 19.532-5.37 45.41l-29.79-19.531c0-35.482 3.42-67.708 10.25-96.68 7.17-29.297 17.26-54.525 30.28-75.683 13.02-21.485 28.81-37.924 47.36-49.317 18.56-11.719 39.39-17.578 62.5-17.578 8.14 0 16.11.488 23.93 1.465 8.13.976 15.3 2.441 21.48 4.394"/><path d="M3107.03 611.562c0-9.114-3.1-16.927-9.28-23.437-5.86-6.836-16.28-13.021-31.25-18.555-14.97-5.859-35.97-11.718-62.99-17.578-25.71-5.534-49.97-12.858-72.75-21.972-22.46-9.115-42.16-20.183-59.08-33.204-16.93-13.02-30.28-28.483-40.04-46.386q-14.16-26.856-14.16-61.524 0-33.692 14.16-63.476 14.64-30.274 42.48-53.223c18.88-15.625 41.83-27.832 68.84-36.621 27.02-9.115 57.78-13.672 92.29-13.672 47.53 0 88.54 7.324 123.05 21.973q51.75 21.484 79.59 60.547 28.32 38.574 28.32 89.355h-164.55q0-20.02-6.84-34.18-6.345-14.16-21-21.484-14.64-7.812-39.06-7.813c-11.39 0-21.81 2.116-31.25 6.348-9.11 4.232-16.44 10.091-21.97 17.578s-8.3 16.276-8.3 26.367c0 7.162 1.63 13.672 4.88 19.532q5.37 8.3 16.11 15.625c7.17 4.557 16.28 8.789 27.35 12.695 11.07 3.581 24.41 6.836 40.04 9.766 35.48 6.51 68.68 15.787 99.61 27.832 30.92 12.044 55.99 29.134 75.19 51.269 19.53 22.136 29.3 51.921 29.3 89.356q0 35.156-16.11 64.941c-10.75 19.531-26.21 36.784-46.39 51.758-20.18 14.648-44.43 26.042-72.76 34.18q-42.48 12.207-95.7 12.207c-50.45 0-93.1-8.952-127.93-26.856-34.83-18.229-61.2-41.015-79.1-68.359q-26.37-41.503-26.37-83.985h153.32c.65 16.276 4.56 29.623 11.72 40.039q11.235 15.626 29.79 22.95c12.37 4.883 26.69 7.324 42.97 7.324q22.455 0 37.11-6.348c10.09-4.232 17.74-9.928 22.94-17.09 5.21-7.487 7.82-16.113 7.82-25.879"/></mask><path fill="#fff" d="M730.27 198.477 556.93 760H372.848l261.23-710.938h116.699zM873.824 760 699.996 198.477 677.535 49.062h118.164L1058.39 760zm-6.836-265.137v132.325H502.242V494.863z"/><path fill="#fff" d="M1181.01 344.473V760h-164.55V231.68h154.3zm-19.53 133.3-38.57.977q0-60.548 14.64-107.91c9.77-31.901 23.6-58.919 41.51-81.055q26.85-33.203 63.96-50.293c25.07-11.719 52.9-17.578 83.5-17.578 24.41 0 46.71 3.581 66.89 10.742q30.765 10.743 52.74 34.668c14.97 15.951 26.37 37.11 34.18 63.477q12.21 39.062 12.21 96.679V760h-165.53V426.992q0-31.738-8.79-48.34c-5.86-11.393-14.32-19.205-25.39-23.437q-16.605-6.348-40.53-6.348c-16.93 0-31.25 3.255-42.97 9.766q-17.58 9.765-28.32 27.344c-6.83 11.393-11.88 24.902-15.13 40.527-2.93 15.625-4.4 32.715-4.4 51.269m666.07 161.133V10h165.53v750h-148.44zm-324.21-136.718v-10.254c0-40.039 4.39-76.498 13.18-109.375q13.185-49.806 39.06-85.45c17.25-24.088 38.74-42.643 64.46-55.664q38.565-19.531 88.86-19.531c29.95 0 56.15 6.999 78.62 20.996 22.46 13.672 41.66 32.878 57.61 57.617 15.95 24.74 28.97 53.711 39.07 86.914 10.09 32.878 17.74 68.36 22.94 106.446v12.207c-5.2 35.807-12.85 69.661-22.94 101.562-10.1 31.576-23.12 59.571-39.07 83.985s-35.32 43.619-58.1 57.617c-22.46 13.672-48.83 20.508-79.1 20.508-33.53 0-63.16-6.674-88.87-20.02-25.39-13.346-46.71-32.064-63.97-56.152-16.92-24.089-29.78-52.409-38.57-84.961s-13.18-68.034-13.18-106.445m164.55-10.254v10.254q0 29.784 3.9 55.175c2.61 16.927 7 31.901 13.19 44.922 6.51 12.695 14.97 22.624 25.39 29.785 10.74 7.162 23.92 10.742 39.55 10.742 21.16 0 38.57-5.045 52.24-15.136 14-10.091 24.26-24.414 30.77-42.969 6.83-18.555 9.76-40.365 8.78-65.43v-38.574c.66-21.484-.81-40.364-4.39-56.641-3.58-16.601-9.28-30.436-17.09-41.503-7.49-11.068-17.09-19.369-28.81-24.903q-17.085-8.789-40.53-8.789c-15.29 0-28.32 3.581-39.06 10.742-10.41 7.162-18.88 17.253-25.39 30.274q-9.765 19.043-14.16 45.41c-2.93 17.253-4.39 36.133-4.39 56.641m614.31 277.832q-64.455 0-115.23-20.02c-33.86-13.672-62.5-32.389-85.94-56.152q-34.665-35.644-53.22-82.032c-12.05-30.924-18.07-63.639-18.07-98.144v-18.555c0-38.737 5.37-74.544 16.12-107.422q16.11-49.804 47.85-86.914t79.59-57.617c31.9-13.997 69.01-20.996 111.32-20.996q56.16 0 100.59 18.066c29.62 12.045 54.69 29.297 75.2 51.758 20.83 22.461 36.62 49.642 47.36 81.543 11.07 31.901 16.6 67.709 16.6 107.422v66.895h-431.64V444.57h271v-12.695c.32-17.578-2.77-32.552-9.28-44.922-6.19-12.37-15.3-21.81-27.34-28.32q-18.075-9.766-43.95-9.766-26.85 0-44.43 11.719c-11.4 7.812-20.35 18.555-26.86 32.226-6.18 13.347-10.58 28.809-13.18 46.387-2.61 17.578-3.91 36.133-3.91 55.664v18.555c0 19.531 2.61 37.272 7.81 53.223 5.54 15.95 13.35 29.622 23.44 41.015q15.63 16.602 37.11 25.879c14.65 6.185 31.25 9.277 49.81 9.277 22.46 0 44.59-4.231 66.4-12.695 21.81-8.463 40.53-22.461 56.15-41.992l74.71 88.867q-16.11 22.95-45.9 44.434c-19.53 14.323-42.97 26.041-70.31 35.156q-41.01 13.184-91.8 13.184m395.08-407.227V760h-164.55V231.68h153.81zm156.25-134.766-2.93 152.832q-9.765-.976-26.37-2.441c-11.06-.976-20.34-1.465-27.83-1.465-19.2 0-35.81 2.279-49.8 6.836-13.67 4.232-25.07 10.742-34.18 19.531q-13.185 12.696-19.53 32.227-5.865 19.532-5.37 45.41l-29.79-19.531c0-35.482 3.42-67.708 10.25-96.68 7.17-29.297 17.26-54.525 30.28-75.683 13.02-21.485 28.81-37.924 47.36-49.317 18.56-11.719 39.39-17.578 62.5-17.578 8.14 0 16.11.488 23.93 1.465 8.13.976 15.3 2.441 21.48 4.394"/><path fill="#fff" d="M3107.03 611.562c0-9.114-3.1-16.927-9.28-23.437-5.86-6.836-16.28-13.021-31.25-18.555-14.97-5.859-35.97-11.718-62.99-17.578-25.71-5.534-49.97-12.858-72.75-21.972-22.46-9.115-42.16-20.183-59.08-33.204-16.93-13.02-30.28-28.483-40.04-46.386q-14.16-26.856-14.16-61.524 0-33.692 14.16-63.476 14.64-30.274 42.48-53.223c18.88-15.625 41.83-27.832 68.84-36.621 27.02-9.115 57.78-13.672 92.29-13.672 47.53 0 88.54 7.324 123.05 21.973q51.75 21.484 79.59 60.547 28.32 38.574 28.32 89.355h-164.55q0-20.02-6.84-34.18-6.345-14.16-21-21.484-14.64-7.812-39.06-7.813c-11.39 0-21.81 2.116-31.25 6.348-9.11 4.232-16.44 10.091-21.97 17.578s-8.3 16.276-8.3 26.367c0 7.162 1.63 13.672 4.88 19.532q5.37 8.3 16.11 15.625c7.17 4.557 16.28 8.789 27.35 12.695 11.07 3.581 24.41 6.836 40.04 9.766 35.48 6.51 68.68 15.787 99.61 27.832 30.92 12.044 55.99 29.134 75.19 51.269 19.53 22.136 29.3 51.921 29.3 89.356q0 35.156-16.11 64.941c-10.75 19.531-26.21 36.784-46.39 51.758-20.18 14.648-44.43 26.042-72.76 34.18q-42.48 12.207-95.7 12.207c-50.45 0-93.1-8.952-127.93-26.856-34.83-18.229-61.2-41.015-79.1-68.359q-26.37-41.503-26.37-83.985h153.32c.65 16.276 4.56 29.623 11.72 40.039q11.235 15.626 29.79 22.95c12.37 4.883 26.69 7.324 42.97 7.324q22.455 0 37.11-6.348c10.09-4.232 17.74-9.928 22.94-17.09 5.21-7.487 7.82-16.113 7.82-25.879"/><path stroke="#212121" stroke-width="20" d="M730.27 198.477 556.93 760H372.848l261.23-710.938h116.699zM873.824 760 699.996 198.477 677.535 49.062h118.164L1058.39 760zm-6.836-265.137v132.325H502.242V494.863z" mask="url(#b)"/><path stroke="#212121" stroke-width="20" d="M1181.01 344.473V760h-164.55V231.68h154.3zm-19.53 133.3-38.57.977q0-60.548 14.64-107.91c9.77-31.901 23.6-58.919 41.51-81.055q26.85-33.203 63.96-50.293c25.07-11.719 52.9-17.578 83.5-17.578 24.41 0 46.71 3.581 66.89 10.742q30.765 10.743 52.74 34.668c14.97 15.951 26.37 37.11 34.18 63.477q12.21 39.062 12.21 96.679V760h-165.53V426.992q0-31.738-8.79-48.34c-5.86-11.393-14.32-19.205-25.39-23.437q-16.605-6.348-40.53-6.348c-16.93 0-31.25 3.255-42.97 9.766q-17.58 9.765-28.32 27.344c-6.83 11.393-11.88 24.902-15.13 40.527-2.93 15.625-4.4 32.715-4.4 51.269Zm666.07 161.133V10h165.53v750h-148.44zm-324.21-136.718v-10.254c0-40.039 4.39-76.498 13.18-109.375q13.185-49.806 39.06-85.45c17.25-24.088 38.74-42.643 64.46-55.664q38.565-19.531 88.86-19.531c29.95 0 56.15 6.999 78.62 20.996 22.46 13.672 41.66 32.878 57.61 57.617 15.95 24.74 28.97 53.711 39.07 86.914 10.09 32.878 17.74 68.36 22.94 106.446v12.207c-5.2 35.807-12.85 69.661-22.94 101.562-10.1 31.576-23.12 59.571-39.07 83.985s-35.32 43.619-58.1 57.617c-22.46 13.672-48.83 20.508-79.1 20.508-33.53 0-63.16-6.674-88.87-20.02-25.39-13.346-46.71-32.064-63.97-56.152-16.92-24.089-29.78-52.409-38.57-84.961s-13.18-68.034-13.18-106.445Zm164.55-10.254v10.254q0 29.784 3.9 55.175c2.61 16.927 7 31.901 13.19 44.922 6.51 12.695 14.97 22.624 25.39 29.785 10.74 7.162 23.92 10.742 39.55 10.742 21.16 0 38.57-5.045 52.24-15.136 14-10.091 24.26-24.414 30.77-42.969 6.83-18.555 9.76-40.365 8.78-65.43v-38.574c.66-21.484-.81-40.364-4.39-56.641-3.58-16.601-9.28-30.436-17.09-41.503-7.49-11.068-17.09-19.369-28.81-24.903q-17.085-8.789-40.53-8.789c-15.29 0-28.32 3.581-39.06 10.742-10.41 7.162-18.88 17.253-25.39 30.274q-9.765 19.043-14.16 45.41c-2.93 17.253-4.39 36.133-4.39 56.641Zm614.31 277.832q-64.455 0-115.23-20.02c-33.86-13.672-62.5-32.389-85.94-56.152q-34.665-35.644-53.22-82.032c-12.05-30.924-18.07-63.639-18.07-98.144v-18.555c0-38.737 5.37-74.544 16.12-107.422q16.11-49.804 47.85-86.914t79.59-57.617c31.9-13.997 69.01-20.996 111.32-20.996q56.16 0 100.59 18.066c29.62 12.045 54.69 29.297 75.2 51.758 20.83 22.461 36.62 49.642 47.36 81.543 11.07 31.901 16.6 67.709 16.6 107.422v66.895h-431.64V444.57h271v-12.695c.32-17.578-2.77-32.552-9.28-44.922-6.19-12.37-15.3-21.81-27.34-28.32q-18.075-9.766-43.95-9.766-26.85 0-44.43 11.719c-11.4 7.812-20.35 18.555-26.86 32.226-6.18 13.347-10.58 28.809-13.18 46.387-2.61 17.578-3.91 36.133-3.91 55.664v18.555c0 19.531 2.61 37.272 7.81 53.223 5.54 15.95 13.35 29.622 23.44 41.015q15.63 16.602 37.11 25.879c14.65 6.185 31.25 9.277 49.81 9.277 22.46 0 44.59-4.231 66.4-12.695 21.81-8.463 40.53-22.461 56.15-41.992l74.71 88.867q-16.11 22.95-45.9 44.434c-19.53 14.323-42.97 26.041-70.31 35.156q-41.01 13.184-91.8 13.184Zm395.08-407.227V760h-164.55V231.68h153.81zm156.25-134.766-2.93 152.832q-9.765-.976-26.37-2.441c-11.06-.976-20.34-1.465-27.83-1.465-19.2 0-35.81 2.279-49.8 6.836-13.67 4.232-25.07 10.742-34.18 19.531q-13.185 12.696-19.53 32.227-5.865 19.532-5.37 45.41l-29.79-19.531c0-35.482 3.42-67.708 10.25-96.68 7.17-29.297 17.26-54.525 30.28-75.683 13.02-21.485 28.81-37.924 47.36-49.317 18.56-11.719 39.39-17.578 62.5-17.578 8.14 0 16.11.488 23.93 1.465 8.13.976 15.3 2.441 21.48 4.394Z" mask="url(#b)"/><path stroke="#212121" stroke-width="20" d="M3107.03 611.562c0-9.114-3.1-16.927-9.28-23.437-5.86-6.836-16.28-13.021-31.25-18.555-14.97-5.859-35.97-11.718-62.99-17.578-25.71-5.534-49.97-12.858-72.75-21.972-22.46-9.115-42.16-20.183-59.08-33.204-16.93-13.02-30.28-28.483-40.04-46.386q-14.16-26.856-14.16-61.524 0-33.692 14.16-63.476 14.64-30.274 42.48-53.223c18.88-15.625 41.83-27.832 68.84-36.621 27.02-9.115 57.78-13.672 92.29-13.672 47.53 0 88.54 7.324 123.05 21.973q51.75 21.484 79.59 60.547 28.32 38.574 28.32 89.355h-164.55q0-20.02-6.84-34.18-6.345-14.16-21-21.484-14.64-7.812-39.06-7.813c-11.39 0-21.81 2.116-31.25 6.348-9.11 4.232-16.44 10.091-21.97 17.578s-8.3 16.276-8.3 26.367c0 7.162 1.63 13.672 4.88 19.532q5.37 8.3 16.11 15.625c7.17 4.557 16.28 8.789 27.35 12.695 11.07 3.581 24.41 6.836 40.04 9.766 35.48 6.51 68.68 15.787 99.61 27.832 30.92 12.044 55.99 29.134 75.19 51.269 19.53 22.136 29.3 51.921 29.3 89.356q0 35.156-16.11 64.941c-10.75 19.531-26.21 36.784-46.39 51.758-20.18 14.648-44.43 26.042-72.76 34.18q-42.48 12.207-95.7 12.207c-50.45 0-93.1-8.952-127.93-26.856-34.83-18.229-61.2-41.015-79.1-68.359q-26.37-41.503-26.37-83.985h153.32c.65 16.276 4.56 29.623 11.72 40.039q11.235 15.626 29.79 22.95c12.37 4.883 26.69 7.324 42.97 7.324q22.455 0 37.11-6.348c10.09-4.232 17.74-9.928 22.94-17.09 5.21-7.487 7.82-16.113 7.82-25.879Z" mask="url(#b)"/><path fill="#212121" stroke="#fff" stroke-width="10" d="M190.387 623.164v-160.41h113.652c21.306 0 37.758 3.667 49.754 10.565l.041.024.042.022c12.077 6.643 20.743 16.073 26.151 28.391l.021.046.021.046c5.816 12.55 8.814 27.589 8.814 45.261 0 14.222-3.085 27.086-9.19 38.687l-.012.023-.012.022c-5.625 10.955-15.033 20.039-28.614 27.141-13.029 6.66-30.863 10.182-53.852 10.182zM488.58 406.011c-6.937-3.835-14.447-7.135-22.522-9.908a146 146 0 0 0 5.414-2.807l.009-.005.009-.005c29.716-16.36 51.2-37.733 64.095-64.202 12.711-26.09 19.06-54.022 19.06-83.732 0-33.837-6.47-63.465-19.601-88.722-13.104-25.53-32.248-46.662-57.32-63.38-24.694-16.681-54.583-28.933-89.551-36.852-34.953-8.242-74.567-12.336-118.802-12.336H9V765h288.203c59.002 0 108.822-7.862 149.292-23.785 40.534-15.948 71.224-39.998 91.732-72.264 20.817-32.237 31.066-72.135 31.066-119.4 0-28.107-6.197-55.05-18.56-80.779-12.56-26.138-33.387-47.037-62.153-62.761Zm-220.185-65.562h-78.008V186.387h78.984c25.065 0 45.091 2.9 60.288 8.482l.057.021.057.02c15.383 5.23 26.21 13.53 32.977 24.71 6.863 11.339 10.508 26.625 10.508 46.239 0 16.875-3.591 30.527-10.444 41.254l-.027.042-.026.042c-6.455 10.563-17.006 18.898-32.167 24.785-15.172 5.565-35.822 8.467-62.199 8.467Z"/><mask id="c" width="2876" height="741" x="3447.78" y="49.455" fill="#000" maskUnits="userSpaceOnUse"><path fill="#fff" d="M3447.78 49.455h2876v741h-2876z"/><path d="M3720.42 770.001h-262.64V59.455h262.29c72.39 0 134.73 14.225 187 42.674 52.51 28.219 92.98 68.927 121.43 122.125 28.45 52.968 42.68 116.343 42.68 190.127 0 74.015-14.23 137.622-42.68 190.82-28.21 53.199-68.58 94.023-121.08 122.472-52.51 28.218-114.84 42.328-187 42.328m-90.9-146.412h84.3c39.79 0 73.44-6.707 100.96-20.123 27.76-13.646 48.69-35.735 62.8-66.266q21.51-46.144 21.51-122.819t-21.51-122.125c-14.34-30.531-35.5-52.505-63.49-65.92-27.75-13.646-61.99-20.47-102.7-20.47h-81.87zm473.54 146.412v-532.91h164.79v97.145h5.56c9.71-35.157 25.55-61.293 47.53-78.409 21.97-17.348 47.53-26.021 76.67-26.021 7.87 0 15.96.578 24.29 1.734 8.33.925 16.07 2.429 23.24 4.511v147.452c-8.09-2.776-18.73-4.973-31.91-6.592-12.96-1.619-24.52-2.429-34.7-2.429-20.12 0-38.28 4.51-54.47 13.531-15.96 8.789-28.57 21.164-37.82 37.123q-13.53 23.592-13.53 55.512v289.353zm686.65-230.026V237.091h169.31v532.91h-161.68v-99.227h-5.55c-11.8 32.613-31.92 58.518-60.37 77.716-28.22 18.966-62.34 28.449-102.35 28.449q-54.465 0-95.76-24.98c-27.52-16.653-48.92-39.898-64.18-69.736q-22.905-45.103-23.25-105.471V237.091h169.66v306.354c.23 28.912 7.86 51.695 22.9 68.348q22.545 24.98 61.41 24.98 25.32 0 45.45-11.102c13.64-7.633 24.4-18.619 32.26-32.96q12.15-21.857 12.15-52.736m208.9 230.026v-532.91h161.33v97.839h5.9c11.1-32.381 29.84-57.94 56.21-76.675 26.36-18.735 57.82-28.102 94.37-28.102 37 0 68.69 9.483 95.06 28.449q39.555 28.45 50.31 76.328h5.55c9.94-31.688 29.37-57.015 58.28-75.981 28.92-19.198 63.03-28.796 102.35-28.796q75.645 0 122.82 48.572 47.19 48.225 47.19 132.533v358.743h-169.66V450.116c0-26.599-6.82-46.837-20.47-60.715-13.65-14.109-31.34-21.164-53.08-21.164q-35.04 0-55.17 22.898-19.77 22.552-19.77 60.716v318.15h-163.07V448.382c0-24.749-6.7-44.294-20.12-58.634s-31.11-21.511-53.08-21.511c-14.81 0-27.87 3.585-39.21 10.755-11.33 6.939-20.24 16.885-26.71 29.838-6.25 12.952-9.37 28.218-9.37 45.797v315.374zm1301.36-370.192-155.78 4.163c-1.62-11.102-6.02-20.932-13.19-29.49-7.17-8.789-16.53-15.612-28.1-20.47-11.33-5.088-24.52-7.633-39.55-7.633q-29.49 0-50.31 11.797c-13.64 7.864-20.35 18.503-20.12 31.919-.23 10.408 3.93 19.429 12.49 27.061 8.79 7.633 24.4 13.763 46.84 18.389l102.69 19.429c53.2 10.177 92.75 27.061 118.66 50.654 26.13 23.592 39.32 54.817 39.55 93.675q-.345 54.817-32.61 95.41c-21.28 27.062-50.43 48.11-87.43 63.144q-55.515 22.205-126.99 22.205-114.135 0-180.06-46.838-65.58-47.184-74.94-126.288l167.57-4.163q5.55 29.144 28.8 44.409c23.25 15.265 35.27 15.265 59.33 15.265 21.74 0 39.43-4.047 53.08-12.143q20.475-12.143 20.82-32.266-.345-18.04-15.96-28.796c-10.41-7.402-26.72-13.184-48.92-17.348l-92.98-17.694c-53.43-9.714-93.22-27.64-119.35-53.777-26.14-26.367-39.09-59.906-38.86-100.614-.23-35.62 9.25-66.035 28.45-91.247 19.2-25.442 46.49-44.871 81.88-58.287q53.085-20.122 125.25-20.122c72.16 0 129.06 15.15 170.69 45.449 41.64 30.069 64.65 71.471 69.05 124.207"/></mask><path fill="#F57F17" d="M3720.42 770.001h-262.64V59.455h262.29c72.39 0 134.73 14.225 187 42.674 52.51 28.219 92.98 68.927 121.43 122.125 28.45 52.968 42.68 116.343 42.68 190.127 0 74.015-14.23 137.622-42.68 190.82-28.21 53.199-68.58 94.023-121.08 122.472-52.51 28.218-114.84 42.328-187 42.328m-90.9-146.412h84.3c39.79 0 73.44-6.707 100.96-20.123 27.76-13.646 48.69-35.735 62.8-66.266q21.51-46.144 21.51-122.819t-21.51-122.125c-14.34-30.531-35.5-52.505-63.49-65.92-27.75-13.646-61.99-20.47-102.7-20.47h-81.87zm473.54 146.412v-532.91h164.79v97.145h5.56c9.71-35.157 25.55-61.293 47.53-78.409 21.97-17.348 47.53-26.021 76.67-26.021 7.87 0 15.96.578 24.29 1.734 8.33.925 16.07 2.429 23.24 4.511v147.452c-8.09-2.776-18.73-4.973-31.91-6.592-12.96-1.619-24.52-2.429-34.7-2.429-20.12 0-38.28 4.51-54.47 13.531-15.96 8.789-28.57 21.164-37.82 37.123q-13.53 23.592-13.53 55.512v289.353zm686.65-230.026V237.091h169.31v532.91h-161.68v-99.227h-5.55c-11.8 32.613-31.92 58.518-60.37 77.716-28.22 18.966-62.34 28.449-102.35 28.449q-54.465 0-95.76-24.98c-27.52-16.653-48.92-39.898-64.18-69.736q-22.905-45.103-23.25-105.471V237.091h169.66v306.354c.23 28.912 7.86 51.695 22.9 68.348q22.545 24.98 61.41 24.98 25.32 0 45.45-11.102c13.64-7.633 24.4-18.619 32.26-32.96q12.15-21.857 12.15-52.736m208.9 230.026v-532.91h161.33v97.839h5.9c11.1-32.381 29.84-57.94 56.21-76.675 26.36-18.735 57.82-28.102 94.37-28.102 37 0 68.69 9.483 95.06 28.449q39.555 28.45 50.31 76.328h5.55c9.94-31.688 29.37-57.015 58.28-75.981 28.92-19.198 63.03-28.796 102.35-28.796q75.645 0 122.82 48.572 47.19 48.225 47.19 132.533v358.743h-169.66V450.116c0-26.599-6.82-46.837-20.47-60.715-13.65-14.109-31.34-21.164-53.08-21.164q-35.04 0-55.17 22.898-19.77 22.552-19.77 60.716v318.15h-163.07V448.382c0-24.749-6.7-44.294-20.12-58.634s-31.11-21.511-53.08-21.511c-14.81 0-27.87 3.585-39.21 10.755-11.33 6.939-20.24 16.885-26.71 29.838-6.25 12.952-9.37 28.218-9.37 45.797v315.374zm1301.36-370.192-155.78 4.163c-1.62-11.102-6.02-20.932-13.19-29.49-7.17-8.789-16.53-15.612-28.1-20.47-11.33-5.088-24.52-7.633-39.55-7.633q-29.49 0-50.31 11.797c-13.64 7.864-20.35 18.503-20.12 31.919-.23 10.408 3.93 19.429 12.49 27.061 8.79 7.633 24.4 13.763 46.84 18.389l102.69 19.429c53.2 10.177 92.75 27.061 118.66 50.654 26.13 23.592 39.32 54.817 39.55 93.675q-.345 54.817-32.61 95.41c-21.28 27.062-50.43 48.11-87.43 63.144q-55.515 22.205-126.99 22.205-114.135 0-180.06-46.838-65.58-47.184-74.94-126.288l167.57-4.163q5.55 29.144 28.8 44.409c23.25 15.265 35.27 15.265 59.33 15.265 21.74 0 39.43-4.047 53.08-12.143q20.475-12.143 20.82-32.266-.345-18.04-15.96-28.796c-10.41-7.402-26.72-13.184-48.92-17.348l-92.98-17.694c-53.43-9.714-93.22-27.64-119.35-53.777-26.14-26.367-39.09-59.906-38.86-100.614-.23-35.62 9.25-66.035 28.45-91.247 19.2-25.442 46.49-44.871 81.88-58.287q53.085-20.122 125.25-20.122c72.16 0 129.06 15.15 170.69 45.449 41.64 30.069 64.65 71.471 69.05 124.207"/><path stroke="#212121" stroke-width="20" d="M3720.42 770.001h-262.64V59.455h262.29c72.39 0 134.73 14.225 187 42.674 52.51 28.219 92.98 68.927 121.43 122.125 28.45 52.968 42.68 116.343 42.68 190.127 0 74.015-14.23 137.622-42.68 190.82-28.21 53.199-68.58 94.023-121.08 122.472-52.51 28.218-114.84 42.328-187 42.328Zm-90.9-146.412h84.3c39.79 0 73.44-6.707 100.96-20.123 27.76-13.646 48.69-35.735 62.8-66.266q21.51-46.144 21.51-122.819t-21.51-122.125c-14.34-30.531-35.5-52.505-63.49-65.92-27.75-13.646-61.99-20.47-102.7-20.47h-81.87zm473.54 146.412v-532.91h164.79v97.145h5.56c9.71-35.157 25.55-61.293 47.53-78.409 21.97-17.348 47.53-26.021 76.67-26.021 7.87 0 15.96.578 24.29 1.734 8.33.925 16.07 2.429 23.24 4.511v147.452c-8.09-2.776-18.73-4.973-31.91-6.592-12.96-1.619-24.52-2.429-34.7-2.429-20.12 0-38.28 4.51-54.47 13.531-15.96 8.789-28.57 21.164-37.82 37.123q-13.53 23.592-13.53 55.512v289.353zm686.65-230.026V237.091h169.31v532.91h-161.68v-99.227h-5.55c-11.8 32.613-31.92 58.518-60.37 77.716-28.22 18.966-62.34 28.449-102.35 28.449q-54.465 0-95.76-24.98c-27.52-16.653-48.92-39.898-64.18-69.736q-22.905-45.103-23.25-105.471V237.091h169.66v306.354c.23 28.912 7.86 51.695 22.9 68.348q22.545 24.98 61.41 24.98 25.32 0 45.45-11.102c13.64-7.633 24.4-18.619 32.26-32.96q12.15-21.857 12.15-52.736Zm208.9 230.026v-532.91h161.33v97.839h5.9c11.1-32.381 29.84-57.94 56.21-76.675 26.36-18.735 57.82-28.102 94.37-28.102 37 0 68.69 9.483 95.06 28.449q39.555 28.45 50.31 76.328h5.55c9.94-31.688 29.37-57.015 58.28-75.981 28.92-19.198 63.03-28.796 102.35-28.796q75.645 0 122.82 48.572 47.19 48.225 47.19 132.533v358.743h-169.66V450.116c0-26.599-6.82-46.837-20.47-60.715-13.65-14.109-31.34-21.164-53.08-21.164q-35.04 0-55.17 22.898-19.77 22.552-19.77 60.716v318.15h-163.07V448.382c0-24.749-6.7-44.294-20.12-58.634s-31.11-21.511-53.08-21.511c-14.81 0-27.87 3.585-39.21 10.755-11.33 6.939-20.24 16.885-26.71 29.838-6.25 12.952-9.37 28.218-9.37 45.797v315.374zm1301.36-370.192-155.78 4.163c-1.62-11.102-6.02-20.932-13.19-29.49-7.17-8.789-16.53-15.612-28.1-20.47-11.33-5.088-24.52-7.633-39.55-7.633q-29.49 0-50.31 11.797c-13.64 7.864-20.35 18.503-20.12 31.919-.23 10.408 3.93 19.429 12.49 27.061 8.79 7.633 24.4 13.763 46.84 18.389l102.69 19.429c53.2 10.177 92.75 27.061 118.66 50.654 26.13 23.592 39.32 54.817 39.55 93.675q-.345 54.817-32.61 95.41c-21.28 27.062-50.43 48.11-87.43 63.144q-55.515 22.205-126.99 22.205-114.135 0-180.06-46.838-65.58-47.184-74.94-126.288l167.57-4.163q5.55 29.144 28.8 44.409c23.25 15.265 35.27 15.265 59.33 15.265 21.74 0 39.43-4.047 53.08-12.143q20.475-12.143 20.82-32.266-.345-18.04-15.96-28.796c-10.41-7.402-26.72-13.184-48.92-17.348l-92.98-17.694c-53.43-9.714-93.22-27.64-119.35-53.777-26.14-26.367-39.09-59.906-38.86-100.614-.23-35.62 9.25-66.035 28.45-91.247 19.2-25.442 46.49-44.871 81.88-58.287q53.085-20.122 125.25-20.122c72.16 0 129.06 15.15 170.69 45.449 41.64 30.069 64.65 71.471 69.05 124.207Z" mask="url(#c)"/></g><defs><filter id="a" width="6327.15" height="798.062" x="0" y="0" color-interpolation-filters="sRGB" filterUnits="userSpaceOnUse"><feFlood flood-opacity="0" result="BackgroundImageFix"/><feColorMatrix in="SourceAlpha" result="hardAlpha" values="0 0 0 0 0 0 0 0 0 0 0 0 0 0 0 0 0 0 127 0"/><feOffset dy="4"/><feGaussianBlur stdDeviation="2"/><feComposite in2="hardAlpha" operator="out"/><feColorMatrix values="0 0 0 0 0 0 0 0 0 0 0 0 0 0 0 0 0 0 0.25 0"/><feBlend in2="BackgroundImageFix" result="effect1_dropShadow_303_17"/><feBlend in="SourceGraphic" in2="effect1_dropShadow_303_17" result="shape"/></filter></defs></svg>