<svg xmlns="http://www.w3.org/2000/svg" width="191" height="191" fill="none"><radialGradient id="a" cx="70.855" cy="190.738" r="237.591" gradientUnits="userSpaceOnUse"><stop offset="0" stop-color="#fd5"/><stop offset=".328" stop-color="#ff543f"/><stop offset=".348" stop-color="#fc5245"/><stop offset=".504" stop-color="#e64771"/><stop offset=".643" stop-color="#d53e91"/><stop offset=".761" stop-color="#cc39a4"/><stop offset=".841" stop-color="#c837ab"/></radialGradient><radialGradient id="b" cx="0" cy="0" r="1" gradientTransform="matrix(157.76 0 0 105.116 30.67 -2.38)" gradientUnits="userSpaceOnUse"><stop offset="0" stop-color="#4168c9"/><stop offset=".999" stop-color="#4168c9" stop-opacity="0"/></radialGradient><path fill="url(#a)" d="m148.31 190.5-105.834.101C19.193 190.622.127 171.593.101 148.31L0 42.476C-.021 19.193 19.008.127 42.291.101L148.124 0c23.284-.021 42.35 19.008 42.376 42.291l.101 105.833c.026 23.289-19.008 42.355-42.291 42.376"/><path fill="url(#b)" d="m148.31 190.5-105.834.101C19.193 190.622.127 171.593.101 148.31L0 42.476C-.021 19.193 19.008.127 42.291.101L148.124 0c23.284-.021 42.35 19.008 42.376 42.291l.101 105.833c.026 23.289-19.008 42.355-42.291 42.376"/><g fill="#fff"><path d="M95.303 132.345c-20.42 0-37.042-16.616-37.042-37.042s16.621-37.042 37.042-37.042c20.42 0 37.042 16.616 37.042 37.042s-16.622 37.042-37.042 37.042m0-63.5c-14.59 0-26.458 11.869-26.458 26.458s11.869 26.458 26.458 26.458 26.458-11.869 26.458-26.458c0-14.59-11.869-26.458-26.458-26.458m39.687-5.292a7.938 7.938 0 1 0 0-15.876 7.938 7.938 0 0 0 0 15.876"/><path d="M127.053 164.095h-63.5c-20.42 0-37.042-16.616-37.042-37.042v-63.5c0-20.426 16.621-37.042 37.042-37.042h63.5c20.42 0 37.042 16.616 37.042 37.042v63.5c0 20.426-16.622 37.042-37.042 37.042m-63.5-127c-14.59 0-26.458 11.869-26.458 26.458v63.5c0 14.589 11.869 26.458 26.458 26.458h63.5c14.589 0 26.458-11.869 26.458-26.458v-63.5c0-14.59-11.869-26.458-26.458-26.458z"/></g></svg>